<mxfile host="65bd71144e">
    <diagram name="Page-1" id="0G1oYMOHJZyfRjhtutIq">
        <mxGraphModel dx="636" dy="593" grid="1" gridSize="10" guides="1" tooltips="1" connect="1" arrows="1" fold="1" page="1" pageScale="1" pageWidth="850" pageHeight="1100" math="0" shadow="0">
            <root>
                <mxCell id="0"/>
                <mxCell id="1" parent="0"/>
                <mxCell id="dPvSl-fLuJKZtYe6wwME-53" value="" style="shape=cube;whiteSpace=wrap;html=1;boundedLbl=1;backgroundOutline=1;darkOpacity=0.05;darkOpacity2=0.1;size=13;strokeWidth=2;strokeColor=default;" parent="1" vertex="1">
                    <mxGeometry x="363" y="270" width="60" height="50" as="geometry"/>
                </mxCell>
                <mxCell id="dPvSl-fLuJKZtYe6wwME-52" value="" style="shape=cube;whiteSpace=wrap;html=1;boundedLbl=1;backgroundOutline=1;darkOpacity=0.05;darkOpacity2=0.1;size=13;strokeWidth=2;strokeColor=default;" parent="1" vertex="1">
                    <mxGeometry x="376" y="283" width="60" height="50" as="geometry"/>
                </mxCell>
                <mxCell id="dPvSl-fLuJKZtYe6wwME-30" value="" style="shape=cube;whiteSpace=wrap;html=1;boundedLbl=1;backgroundOutline=1;darkOpacity=0.05;darkOpacity2=0.1;size=13;strokeWidth=2;strokeColor=default;" parent="1" vertex="1">
                    <mxGeometry x="436" y="370" width="60" height="50" as="geometry"/>
                </mxCell>
                <mxCell id="dPvSl-fLuJKZtYe6wwME-29" value="" style="shape=cube;whiteSpace=wrap;html=1;boundedLbl=1;backgroundOutline=1;darkOpacity=0.05;darkOpacity2=0.1;size=13;strokeWidth=2;strokeColor=default;" parent="1" vertex="1">
                    <mxGeometry x="436" y="296" width="60" height="50" as="geometry"/>
                </mxCell>
                <mxCell id="dPvSl-fLuJKZtYe6wwME-1" value="" style="shape=cube;whiteSpace=wrap;html=1;boundedLbl=1;backgroundOutline=1;darkOpacity=0.05;darkOpacity2=0.1;size=13;strokeWidth=2;strokeColor=default;" parent="1" vertex="1">
                    <mxGeometry x="389" y="407" width="60" height="50" as="geometry"/>
                </mxCell>
                <mxCell id="dPvSl-fLuJKZtYe6wwME-2" value="" style="shape=cube;whiteSpace=wrap;html=1;boundedLbl=1;backgroundOutline=1;darkOpacity=0.05;darkOpacity2=0.1;size=13;strokeWidth=2;strokeColor=default;" parent="1" vertex="1">
                    <mxGeometry x="389" y="370" width="60" height="50" as="geometry"/>
                </mxCell>
                <mxCell id="dPvSl-fLuJKZtYe6wwME-3" value="" style="shape=cube;whiteSpace=wrap;html=1;boundedLbl=1;backgroundOutline=1;darkOpacity=0.05;darkOpacity2=0.1;size=13;strokeWidth=2;strokeColor=default;" parent="1" vertex="1">
                    <mxGeometry x="389" y="333" width="60" height="50" as="geometry"/>
                </mxCell>
                <mxCell id="dPvSl-fLuJKZtYe6wwME-4" value="" style="shape=cube;whiteSpace=wrap;html=1;boundedLbl=1;backgroundOutline=1;darkOpacity=0.05;darkOpacity2=0.1;size=13;strokeWidth=2;strokeColor=default;" parent="1" vertex="1">
                    <mxGeometry x="389" y="296" width="60" height="50" as="geometry"/>
                </mxCell>
                <mxCell id="dPvSl-fLuJKZtYe6wwME-5" value="" style="shape=cube;whiteSpace=wrap;html=1;boundedLbl=1;backgroundOutline=1;darkOpacity=0.05;darkOpacity2=0.1;size=13;strokeWidth=2;strokeColor=default;" parent="1" vertex="1">
                    <mxGeometry x="342" y="296" width="60" height="50" as="geometry"/>
                </mxCell>
                <mxCell id="dPvSl-fLuJKZtYe6wwME-28" value="" style="shape=cube;whiteSpace=wrap;html=1;boundedLbl=1;backgroundOutline=1;darkOpacity=0.05;darkOpacity2=0.1;size=13;strokeWidth=2;strokeColor=default;" parent="1" vertex="1">
                    <mxGeometry x="295" y="296" width="60" height="50" as="geometry"/>
                </mxCell>
                <mxCell id="dPvSl-fLuJKZtYe6wwME-51" value="" style="sketch=0;aspect=fixed;pointerEvents=1;shadow=0;dashed=0;html=1;labelPosition=center;verticalLabelPosition=bottom;verticalAlign=top;align=center;shape=mxgraph.mscae.enterprise.wireless_connection;strokeWidth=2;strokeColor=default;" parent="1" vertex="1">
                    <mxGeometry x="488" y="323" width="67.2" height="80" as="geometry"/>
                </mxCell>
            </root>
        </mxGraphModel>
    </diagram>
</mxfile>